<svg id="Layer_1" data-name="Layer 1" xmlns="http://www.w3.org/2000/svg" width="110" height="110" viewBox="0 0 110 110"><defs><style>.cls-1{stroke:#000;stroke-miterlimit:10;stroke-width:4px;}.cls-2{font-size:13px;font-family:BebasNeue-Regular, Bebas Neue;letter-spacing:0.08em;}.cls-3{letter-spacing:0.034em;}.cls-4{letter-spacing:0.09em;}.cls-5{letter-spacing:0.084em;}.cls-6{letter-spacing:0.084em;}</style></defs><path d="M17.593,20.1v5c0,10,2.551,12.262,8.927,12.262,5.984,0,11.085-.589,17.756-.589,6.376,0,9.516,2.06,10.693,8.829h.392c1.178-6.769,4.317-8.829,10.693-8.829,6.082,0,12.164.589,17.756.589,6.377,0,8.927-2.257,8.927-12.262v-5h4.611v5.984c0,12.36-2.944,18.05-13.047,18.05-6.77,0-12.753-.883-18.934-.883-3.826,0-7.554,2.648-7.651,14.225h-5.1c-.1-11.577-3.825-14.225-7.651-14.225-6.573,0-11.772.883-18.933.883-10.1,0-13.048-5.69-13.048-18.05V20.1Z"/><line class="cls-1" x1="15" y1="21" x2="15" y2="60"/><line class="cls-1" x1="95" y1="21" x2="95" y2="60"/><text class="cls-2" transform="translate(10.86 77.66)">{M<tspan class="cls-3" x="12.662" y="0">a</tspan><tspan class="cls-4" x="18.317" y="0">t</tspan><tspan class="cls-5" x="24.219" y="0">t</tspan><tspan x="30.042" y="0">y J Phe</tspan><tspan class="cls-6" x="65.246" y="0">l</tspan><tspan x="70.81" y="0">an}</tspan></text></svg>